<svg width="145" height="32" viewBox="0 0 145 32" fill="none" xmlns="http://www.w3.org/2000/svg">
<g clip-path="url(#clip0_0_12)">
<path d="M43.431 1.65436L43.4104 1.66998L43.3899 1.68658C43.1525 1.89049 42.9663 2.14764 42.846 2.43658C42.7322 2.71017 42.6825 3.00526 42.6966 3.30084C42.6815 3.8489 42.8592 4.38489 43.1985 4.81549L43.2034 4.82135L43.2073 4.82721C43.4988 5.17531 43.844 5.47443 44.2288 5.71393L44.3968 5.81354C44.8313 6.06281 45.289 6.32329 45.7708 6.58795V6.58893C46.1875 6.81746 46.6043 7.04893 47.0237 7.28717H47.0247C47.4052 7.50201 47.7628 7.75565 48.0911 8.04401V8.04498C48.388 8.31066 48.6309 8.63145 48.806 8.98932L48.8118 9.00006C48.99 9.34375 49.0936 9.7211 49.1175 10.1075C49.1413 10.494 49.0842 10.8811 48.9495 11.2442C48.8149 11.6072 48.6063 11.9384 48.3362 12.2159C48.0661 12.4934 47.7405 12.7111 47.3811 12.8555L47.3792 12.8565C47.0451 12.9921 46.6978 13.0888 46.344 13.1485C46.4101 13.1297 46.4762 13.1092 46.5413 13.087L46.5442 13.086C46.9684 12.9378 47.3379 12.6652 47.6048 12.3038L47.6136 12.293L47.6204 12.2813C47.8584 11.9198 47.9907 11.5006 48.0042 11.0704L48.0022 10.7012C47.9767 10.1726 47.7919 9.66191 47.47 9.23737L47.4622 9.2276L47.4554 9.21881L47.3177 9.06158C46.9901 8.70359 46.6075 8.39961 46.1839 8.16119H46.1849C45.7168 7.88983 45.227 7.61113 44.72 7.33209C44.2275 7.06105 43.7106 6.75138 43.2464 6.43756L43.2415 6.43463L43.0911 6.33014C42.7496 6.07875 42.457 5.76623 42.2278 5.40826C41.9999 5.02315 41.873 4.58792 41.8567 4.14264V3.91608C41.8411 3.42675 41.9826 2.94544 42.261 2.54303C42.5514 2.15155 42.9447 1.84716 43.3968 1.6651H43.3978C43.411 1.65972 43.4245 1.65472 43.4378 1.64948C43.4355 1.65104 43.4332 1.65279 43.431 1.65436ZM41.7015 10.8975C41.8338 11.235 41.9907 11.5629 42.1722 11.878L42.1751 11.8829C42.379 12.2283 42.6562 12.5208 42.9827 12.7462C42.8275 12.6927 42.666 12.6586 42.5013 12.6485L42.4808 12.6475H42.4603C42.3546 12.6498 42.25 12.6702 42.1517 12.7071L42.055 12.7501C41.9534 12.8019 41.8627 12.8718 41.7864 12.9561L41.7015 10.8975ZM48.4202 3.47076C48.1935 2.87919 47.9185 2.39155 47.5823 2.02252C47.529 1.96401 47.4728 1.9096 47.4153 1.85748C47.4983 1.87393 47.5822 1.88703 47.6673 1.89069H47.678C47.9153 1.89599 48.148 1.82376 48.3411 1.68561L48.3626 1.66998L48.3665 1.66608L48.4202 3.47076Z" fill="#C7996E" stroke="#C7996E"/>
<path d="M54.0645 4.86768V11.4966H54.0655C54.0582 11.8199 54.0905 12.1431 54.1622 12.4585L54.1661 12.4761C54.2127 12.6515 54.3019 12.8132 54.4259 12.9458C54.4378 12.9586 54.4514 12.9698 54.464 12.9819H52.7599C52.7777 12.964 52.797 12.9465 52.8136 12.9272C52.9308 12.791 53.0118 12.6274 53.0489 12.4517C53.0987 12.2185 53.1276 11.9816 53.1358 11.7437L53.1378 11.5054V6.39014C53.1378 6.15849 53.1171 5.93798 53.0626 5.74756C53.0104 5.56514 52.906 5.33931 52.6837 5.19971L52.67 5.19092L52.6554 5.18311C52.6275 5.16808 52.599 5.15452 52.5704 5.14111L53.88 4.86768H54.0645ZM53.6436 1.09619C53.7344 1.08939 53.8257 1.10137 53.9112 1.13232C53.9968 1.16334 54.0753 1.21247 54.1407 1.27588C54.206 1.33918 54.2565 1.41599 54.2901 1.50049C54.3238 1.58511 54.3391 1.67612 54.3351 1.76709V1.79639C54.3379 1.98331 54.2668 2.16329 54.1388 2.29932C54.073 2.3633 53.9952 2.41436 53.9093 2.44678C53.8212 2.47991 53.7268 2.49351 53.6329 2.48779L53.6075 2.48682L53.5811 2.48779C53.4897 2.49183 53.3979 2.47692 53.3126 2.44385C53.2281 2.4111 53.1515 2.36106 53.087 2.29736C53.0241 2.23217 52.9746 2.15512 52.9415 2.0708C52.908 1.98532 52.8923 1.89402 52.8946 1.80225V1.78662L52.8936 1.771C52.8903 1.68069 52.9062 1.5903 52.9395 1.50635C52.9729 1.42242 53.0236 1.34609 53.088 1.28271C53.1525 1.21932 53.2299 1.1702 53.3145 1.13818C53.399 1.10624 53.489 1.09238 53.5792 1.09717L53.6114 1.09814L53.6436 1.09619Z" fill="#C7996E" stroke="#C7996E"/>
<path d="M59.8061 5.33325C59.7202 5.43561 59.6442 5.54654 59.5786 5.66431C59.3173 6.10063 59.1653 6.63165 59.0903 7.25317H58.8315L58.8452 7.76685L58.8647 8.52271L58.8784 9.01001H59.0493C59.0982 9.57217 59.2312 10.125 59.4458 10.6497L59.4467 10.6536C59.6931 11.2432 60.1134 11.7444 60.6508 12.0901L60.6567 12.094L60.6635 12.0979C61.1712 12.403 61.7532 12.5604 62.3452 12.5559V12.5569C62.7698 12.5683 63.1937 12.5146 63.601 12.3967L63.7749 12.342L63.7846 12.3381C63.899 12.2967 64.0094 12.246 64.1176 12.1917C64.0327 12.2843 63.9452 12.3745 63.851 12.4583C63.6639 12.6228 63.4548 12.7599 63.2299 12.8655L63.0005 12.9602C62.5955 13.1034 62.1683 13.1751 61.7387 13.1711H61.7251C61.064 13.1842 60.4108 13.023 59.8315 12.7043C59.3547 12.4306 58.9609 12.035 58.6899 11.5598L58.5815 11.3508C58.2898 10.7097 58.1301 10.0177 58.1098 9.31567V8.99731L58.1089 8.98071C58.0786 8.15812 58.2549 7.34112 58.6206 6.60376C58.8928 6.0792 59.3034 5.64043 59.8061 5.33325ZM62.646 4.89966C62.7743 4.93281 62.9008 4.97482 63.0239 5.02563C63.4056 5.18322 63.7492 5.42079 64.0307 5.7229V5.72388C64.5024 6.2425 64.8094 6.98874 64.9087 8.01001H63.8208L63.8178 7.74731C63.8116 7.24616 63.7341 6.74858 63.5893 6.2688H63.5903C63.4637 5.81504 63.2172 5.4037 62.8774 5.07739L62.8706 5.07056L62.8637 5.0647L62.7173 4.94653C62.6942 4.92976 62.6697 4.91534 62.646 4.89966Z" fill="#C7996E" stroke="#C7996E"/>
<path d="M73.5246 4.80322C73.8289 4.78483 74.1335 4.83826 74.4133 4.95947C74.6898 5.0793 74.9344 5.26189 75.1281 5.49268C75.4808 5.95745 75.6954 6.68924 75.6955 7.76318V11.4966C75.6887 11.7348 75.7052 11.973 75.7453 12.2075L75.7931 12.4409L75.7961 12.4536C75.8418 12.6241 75.9269 12.7816 76.0441 12.9136C76.0655 12.9377 76.0892 12.9598 76.1125 12.9819H74.384C74.406 12.9601 74.4282 12.9382 74.4484 12.9146C74.5624 12.7812 74.6435 12.6224 74.6838 12.4517L74.6857 12.4438C74.7362 12.2125 74.7655 11.9771 74.7736 11.7407L74.7746 11.5044V8.22607C74.8052 7.62948 74.7247 7.03238 74.5363 6.46533L74.5353 6.4624L74.4738 6.3042C74.3128 5.9433 74.0378 5.64288 73.6896 5.44971L73.6799 5.44385L73.6691 5.43896L73.5431 5.38135C73.2498 5.257 72.9339 5.19339 72.6144 5.19482H72.6017C72.4376 5.19291 72.2742 5.20631 72.1134 5.23486C72.1429 5.21433 72.1717 5.19265 72.2013 5.17236C72.5833 4.92424 73.031 4.79561 73.4865 4.80322L73.506 4.8042L73.5246 4.80322ZM69.8927 4.86475V5.39404H69.6291L69.6896 5.94873L69.8009 6.96045L69.9015 7.87256L69.9504 7.83252V11.5015C69.9424 11.8133 69.971 12.1249 70.0353 12.4302L70.0373 12.4409C70.078 12.6153 70.1604 12.7772 70.2775 12.9126C70.2988 12.9372 70.3226 12.9594 70.3459 12.9819H68.633C68.6599 12.9545 68.6861 12.9263 68.7101 12.896C68.8193 12.7585 68.8933 12.5958 68.9259 12.4233V12.4224C68.9824 12.1208 69.0081 11.8141 69.0021 11.5073V6.35107C69.0194 6.17676 69.0039 6.00081 68.9543 5.83252C68.9 5.64863 68.8074 5.47815 68.6828 5.33252L68.6408 5.28271L68.5871 5.24561L68.4865 5.18213C68.4719 5.17382 68.4564 5.16744 68.4416 5.15967L69.8185 4.86475H69.8927Z" fill="#C7996E" stroke="#C7996E"/>
<path d="M83.4893 8.38257L86.962 12.2312V12.2322C87.1861 12.4923 87.4294 12.7356 87.6895 12.9597L87.6964 12.9646C87.714 12.9793 87.7338 12.9916 87.752 13.0056H85.834C85.8964 12.8988 85.9312 12.7777 85.9307 12.6531V12.6521C85.9299 12.4993 85.8936 12.3492 85.8272 12.2117H85.8282C85.8264 12.2077 85.8242 12.2039 85.8223 12.2C85.821 12.1972 85.8198 12.1939 85.8184 12.1912H85.8174C85.7618 12.0743 85.6885 11.967 85.5997 11.8728H85.6006L82.8526 8.73608L83.3497 8.22729L83.4893 8.38257ZM81.7745 0.638428V11.6863C81.7745 11.958 81.7978 12.2097 81.8575 12.4285C81.9113 12.6254 82.0036 12.8248 82.1612 12.9822H80.463C80.4646 12.9805 80.4662 12.979 80.4678 12.9773C80.6337 12.8044 80.7217 12.5812 80.7715 12.3669C80.8224 12.148 80.8438 11.8952 80.8438 11.6189V2.22632C80.8743 1.87423 80.7869 1.52189 80.5928 1.22534L80.546 1.15308L80.4776 1.10132L80.3712 1.02808C80.3349 1.00557 80.2979 0.984451 80.2598 0.965576L81.5948 0.638428H81.7745ZM86.8575 5.04663C86.7951 5.08063 86.7339 5.11675 86.6739 5.15503L86.669 5.15796C86.3444 5.37001 86.0307 5.59824 85.7296 5.84253C85.6014 5.94553 85.4614 6.06074 85.3087 6.18726C85.4553 5.99851 85.5363 5.76701 85.5352 5.5271H85.5342C85.5345 5.40757 85.5086 5.29013 85.4571 5.18335L85.3956 5.07788L85.3702 5.04663H86.8575Z" fill="#C7996E" stroke="#C7996E"/>
<path d="M93.0346 4.8681V11.4911C93.0315 11.7429 93.0543 11.9941 93.101 12.2411L93.1557 12.4863C93.2015 12.6633 93.2906 12.8263 93.4155 12.9599C93.4226 12.9675 93.4307 12.974 93.438 12.9814H91.7309C91.7485 12.9637 91.7673 12.9467 91.7837 12.9277C91.9013 12.7911 91.982 12.6265 92.019 12.4501V12.4492C92.0676 12.2162 92.0966 11.9797 92.104 11.7421V6.38959C92.104 6.15973 92.0847 5.94063 92.0317 5.75092C91.9809 5.5692 91.8782 5.34103 91.6538 5.20013L91.6401 5.19135L91.6255 5.18353L91.5405 5.14056L92.8462 4.8681H93.0346ZM92.6235 1.09564C92.7141 1.08825 92.8056 1.10015 92.8911 1.1308C92.9765 1.16144 93.0544 1.21018 93.1196 1.27338C93.1848 1.33659 93.2357 1.41345 93.269 1.49799C93.3022 1.58245 93.3166 1.67299 93.312 1.76361L93.311 1.78412L93.312 1.80463C93.3176 1.98726 93.2524 2.16429 93.1313 2.30072C93.0646 2.36528 92.9859 2.41586 92.8989 2.44818C92.809 2.48149 92.7124 2.49517 92.6167 2.48822L92.5903 2.84076L92.5835 2.48724H92.5796L92.5717 2.70209L92.563 2.48724C92.471 2.49095 92.3792 2.4765 92.2934 2.4433C92.2507 2.42673 92.2097 2.40556 92.1714 2.3808L92.0639 2.29388C92.0026 2.22944 91.9538 2.15404 91.9214 2.07123C91.8878 1.9856 91.8721 1.89364 91.8745 1.8017V1.77045C91.8712 1.68041 91.8862 1.59052 91.9194 1.50677C91.9527 1.42289 92.0036 1.34653 92.0678 1.28314C92.1321 1.21984 92.2091 1.17071 92.2934 1.13861C92.3777 1.10652 92.468 1.09206 92.5581 1.09662L92.5913 1.09857L92.6235 1.09564Z" fill="#C7996E" stroke="#C7996E"/>
<path d="M98.7524 5.36255C98.6792 5.45308 98.6129 5.54945 98.5552 5.65161C98.2894 6.0902 98.1368 6.62588 98.061 7.25317H97.8003L97.811 7.76489L97.8286 8.52075L97.8394 9.01001H98.019C98.0675 9.57269 98.2005 10.126 98.4165 10.6506V10.6536C98.6625 11.2435 99.0827 11.7447 99.6206 12.0901L99.6274 12.094L99.6333 12.0979C100.141 12.4031 100.723 12.5603 101.315 12.5559V12.5569C101.801 12.5703 102.287 12.4976 102.748 12.342L102.758 12.3381C102.873 12.2967 102.983 12.246 103.091 12.1917C103.007 12.2844 102.919 12.3747 102.825 12.4583C102.576 12.6779 102.287 12.8484 101.974 12.9602C101.575 13.1018 101.154 13.1735 100.731 13.1711V13.1702L100.718 13.1711C100.059 13.1841 99.4085 13.024 98.8306 12.7073C98.3531 12.4324 97.9586 12.036 97.687 11.5598L97.5786 11.3508C97.2438 10.6186 97.0826 9.81875 97.1069 9.01392V8.99731L97.106 8.98071C97.0756 8.15524 97.2523 7.33436 97.6206 6.59497C97.8831 6.09067 98.2748 5.66663 98.7524 5.36255ZM101.592 4.88696C101.737 4.92171 101.879 4.96858 102.017 5.02563C102.401 5.18388 102.746 5.42282 103.028 5.72681C103.502 6.24538 103.813 6.99078 103.909 8.01001H102.784L102.781 7.74829C102.776 7.2437 102.699 6.74222 102.553 6.25903C102.424 5.81173 102.181 5.40553 101.847 5.08032L101.838 5.07153L101.829 5.06274C101.754 4.99726 101.675 4.93978 101.592 4.88696Z" fill="#C7996E" stroke="#C7996E"/>
<path d="M113.989 5.03662C113.988 5.0384 113.986 5.03971 113.984 5.0415L113.915 5.14111C113.833 5.27989 113.792 5.43912 113.795 5.6001L113.794 5.60107C113.797 5.76225 113.817 5.92298 113.855 6.07959L113.857 6.08545C113.876 6.15666 113.896 6.23096 113.919 6.30713L113.998 6.54443L115.464 10.4722H115.465L115.802 11.5483L115.912 11.8989H116.496L116.016 13.0962H115.514L113.953 8.75342H114.256L113.936 8.04736L113.295 6.62939L112.82 5.58057L112.768 5.70654C112.746 5.66313 112.725 5.61956 112.703 5.57666L112.577 5.34717C112.511 5.23113 112.428 5.12696 112.332 5.03662H113.989ZM108.405 5.03662L108.338 5.13037C108.272 5.23682 108.23 5.35568 108.215 5.479L108.208 5.58643C108.205 5.77748 108.24 5.96732 108.31 6.14502L108.312 6.14893C108.352 6.24527 108.394 6.36372 108.442 6.50732L108.447 6.52197L108.453 6.53564L110.048 10.5093L110.378 11.562L110.487 11.9126H111.069L110.573 13.0962H110.07L107.305 6.27979C107.183 5.95314 107.025 5.6407 106.834 5.34912L106.828 5.34033L106.763 5.25146C106.7 5.17306 106.63 5.10159 106.555 5.03662H108.405ZM119.477 5.05029L119.46 5.06787C119.154 5.39171 118.923 5.77847 118.782 6.20068L118.723 6.34912L118.772 6.1499C118.821 5.97502 118.843 5.79324 118.838 5.61182H118.836C118.833 5.41977 118.769 5.23354 118.649 5.08252C118.64 5.07093 118.629 5.06136 118.619 5.05029H119.477Z" fill="#C7996E" stroke="#C7996E"/>
<path d="M124.231 4.86743V11.4973H124.232C124.225 11.8204 124.257 12.1431 124.329 12.4583L124.33 12.4651L124.332 12.4729C124.377 12.6497 124.467 12.8121 124.591 12.9456C124.603 12.9582 124.617 12.9696 124.629 12.9817H122.927C122.945 12.9639 122.964 12.947 122.98 12.928C123.097 12.7917 123.177 12.6274 123.214 12.4514L123.215 12.4524C123.265 12.2191 123.294 11.9816 123.302 11.7434L123.304 11.5051V6.38989C123.304 6.15824 123.284 5.93774 123.229 5.74731C123.177 5.56493 123.072 5.33998 122.85 5.20044L122.836 5.19165L122.822 5.18384L122.737 5.14087L124.051 4.86743H124.231ZM123.811 1.09595C123.902 1.08886 123.994 1.10121 124.08 1.13208C124.165 1.16293 124.244 1.21148 124.309 1.27466C124.375 1.33807 124.427 1.41547 124.46 1.50024C124.494 1.58488 124.509 1.6758 124.505 1.76685L124.504 1.78149V1.79712C124.507 1.98417 124.436 2.16405 124.308 2.30005C124.242 2.36415 124.164 2.41515 124.078 2.44751C123.989 2.48087 123.893 2.4947 123.798 2.48853L123.776 2.83228L123.769 2.48755H123.766L123.758 2.72681L123.749 2.48755C123.658 2.4913 123.567 2.47655 123.482 2.4436C123.397 2.41072 123.321 2.35997 123.256 2.29614C123.193 2.23158 123.143 2.15561 123.11 2.07153C123.077 1.98655 123.061 1.89515 123.064 1.80396L123.065 1.78735L123.064 1.77075C123.061 1.68057 123.077 1.59091 123.11 1.50708C123.143 1.42321 123.193 1.34682 123.257 1.28345C123.322 1.22007 123.399 1.17105 123.483 1.13892C123.567 1.10679 123.657 1.09236 123.748 1.09692L123.78 1.09888L123.811 1.09595Z" fill="#C7996E" stroke="#C7996E"/>
<path d="M129.941 5.41309C129.888 5.47856 129.837 5.54683 129.791 5.61816C129.341 6.28959 129.149 7.21196 129.149 8.31738H129.15C129.109 9.34505 129.352 10.3642 129.854 11.2617L129.861 11.2744L129.869 11.2852C130.412 12.1394 131.303 12.5292 132.41 12.5293C133.032 12.5535 133.649 12.4045 134.19 12.0967L134.198 12.0918C133.949 12.3955 133.64 12.6453 133.289 12.8252C132.744 13.0648 132.151 13.1761 131.557 13.1504C130.961 13.1246 130.379 12.9614 129.856 12.6748C129.417 12.392 129.057 12.0052 128.808 11.5488L128.707 11.3467C128.439 10.759 128.29 10.1244 128.269 9.48047V9.17969C128.251 8.37072 128.408 7.56721 128.733 6.82617L128.734 6.82715C128.997 6.25151 129.415 5.76251 129.941 5.41309ZM132.822 4.84375C133.3 4.90507 133.761 5.06877 134.171 5.33008L134.176 5.33301C134.349 5.44055 134.494 5.58991 134.595 5.76758C134.695 5.94531 134.75 6.14628 134.753 6.35059V6.36426L134.754 6.37891C134.758 6.43984 134.749 6.50121 134.728 6.55859C134.709 6.61031 134.679 6.65641 134.643 6.69727C134.549 6.77338 134.432 6.81439 134.311 6.80859L134.284 6.80762L134.258 6.80859C134.145 6.81538 134.034 6.77907 133.946 6.70801C133.844 6.60436 133.763 6.48088 133.711 6.34473L133.709 6.34082L133.442 5.66602C133.331 5.37756 133.152 5.11998 132.921 4.91504L132.907 4.90332L132.893 4.89258L132.822 4.84375Z" fill="#C7996E" stroke="#C7996E"/>
<path d="M144.008 12.9819H142.852C142.887 12.9707 142.923 12.9599 142.958 12.9478L142.971 12.9438L142.984 12.938C143.411 12.7622 143.762 12.4411 143.976 12.0317L143.98 12.0259L143.983 12.019C144.018 11.9456 144.048 11.8693 144.08 11.7944L144.008 12.9819ZM144.109 5.03662V5.05322L138.999 12.3198L138.908 12.4497V12.9819H137.563L142.643 5.73193L142.734 5.60205V5.03662H144.109ZM138.976 5.03662C138.633 5.15539 138.341 5.35063 138.132 5.65381L138.126 5.6626L138.121 5.67041C138.041 5.7972 137.967 5.92758 137.902 6.06201L137.938 5.03662H138.976Z" fill="#C7996E" stroke="#C7996E"/>
<path d="M44.6171 19.1123V30.541H42.9813C43.0222 30.5089 43.0618 30.4749 43.0985 30.4375C43.2478 30.2852 43.3542 30.0953 43.4071 29.8887L43.4091 29.8818C43.5082 29.4692 43.5506 29.0452 43.537 28.6211H43.538V20.8574C43.5578 20.4447 43.4911 20.0319 43.3417 19.6465L43.3339 19.627L43.3251 19.6084L43.2528 19.4795C43.1732 19.3544 43.0723 19.2431 42.955 19.1514C42.9369 19.1372 42.9171 19.1254 42.8983 19.1123H44.6171ZM47.9618 19.1953C48.3584 19.2421 48.7529 19.3081 49.1434 19.3945H49.1464C49.8079 19.5375 50.4396 19.7917 51.0155 20.1445L51.2587 20.3018C51.7821 20.6733 52.214 21.1575 52.5223 21.7178L52.6473 21.9639C53.0213 22.8206 53.1984 23.7502 53.1669 24.6846V24.7148C53.191 25.6435 53.0292 26.5674 52.6913 27.4326C52.4101 28.1203 51.9605 28.726 51.3837 29.1943C50.8566 29.6066 50.2616 29.922 49.6259 30.126L49.3495 30.207C49.1833 30.2509 49.0155 30.288 48.8475 30.3232C48.9368 30.295 49.0267 30.2676 49.1151 30.2363L49.1259 30.2324C50.0128 29.8947 50.7432 29.2403 51.1776 28.3965C51.6497 27.5222 51.8583 26.3395 51.8583 24.8945C51.8583 23.0634 51.404 21.5832 50.4198 20.5352C49.7938 19.8686 48.9652 19.4303 47.9618 19.1953Z" fill="#C7996E" stroke="#C7996E"/>
<path d="M58.617 22.6202C58.3754 22.8069 58.1743 23.0418 58.0242 23.3097C57.5763 24.0402 57.3826 25.0484 57.3826 26.2716C57.3826 27.732 57.5759 28.8947 58.0291 29.6827V29.6837C58.2323 30.0633 58.5372 30.3781 58.908 30.5958C58.232 30.4324 57.6935 30.1229 57.2742 29.6788C56.6309 28.9975 56.2685 27.9602 56.2664 26.4835V26.4738C56.2506 25.7228 56.4111 24.9785 56.7351 24.3009C57.0246 23.7116 57.4794 23.2194 58.0437 22.8839L58.0428 22.8829C58.2273 22.7794 58.42 22.6932 58.617 22.6202ZM61.3562 22.5089C62.0082 22.6728 62.5321 22.9787 62.9392 23.4132C63.5836 24.1009 63.9285 25.0568 63.9285 26.3527V26.3693C63.9569 27.2199 63.791 28.0658 63.4441 28.8429C63.1704 29.4339 62.7202 29.925 62.156 30.2501C61.984 30.3418 61.8059 30.4196 61.6238 30.4855C61.647 30.4693 61.6715 30.4547 61.6941 30.4376L61.7107 30.4259L61.7263 30.4122C62.1695 30.0176 62.4716 29.4896 62.5896 28.9083L62.5906 28.9093C62.7686 28.1145 62.8472 27.3006 62.8279 26.4865C62.875 25.4453 62.663 24.4083 62.2117 23.4689L62.1326 23.3185C61.9437 22.99 61.6773 22.7123 61.3562 22.5089Z" fill="#C7996E" stroke="#C7996E"/>
<path d="M78.0087 22.3689C78.2886 22.3553 78.5684 22.4035 78.8281 22.5085C79.0226 22.5873 79.2027 22.6967 79.3613 22.8328L79.5126 22.9783C79.8496 23.3494 80.0761 24.0343 80.0761 25.1609V28.863C80.0687 29.2031 80.0966 29.5431 80.1582 29.8777V29.8787C80.1897 30.0584 80.2622 30.2289 80.3691 30.3767C80.4122 30.4363 80.4617 30.4903 80.5146 30.5408H78.7158C78.7784 30.4812 78.8351 30.4146 78.8837 30.3425C78.9835 30.1947 79.0484 30.0258 79.0751 29.8494C79.1149 29.6037 79.1393 29.3558 79.1455 29.1072V25.4851C79.1702 24.9629 79.0938 24.4407 78.9218 23.947L78.9169 23.9333C78.7726 23.5539 78.5042 23.2337 78.1552 23.0261L78.1298 23.0125L78.0078 22.9539C77.719 22.8262 77.4055 22.7624 77.0888 22.7673H77.0859C76.8753 22.7718 76.6671 22.8024 76.4658 22.8562C76.5355 22.8113 76.6061 22.7675 76.6777 22.7253C77.0748 22.4937 77.5266 22.3716 77.9863 22.3699H77.997L78.0087 22.3689ZM72.6025 22.3757C73.0394 22.3527 73.468 22.5 73.7998 22.7849C73.8683 22.8519 73.9325 22.9226 73.9921 22.9968H73.9775L74.1337 23.6189L74.3798 24.6003L74.5341 25.2146V28.863C74.5262 29.2173 74.5573 29.5714 74.6279 29.9187L74.6298 29.9275C74.6697 30.1072 74.7508 30.2752 74.8662 30.4187C74.9013 30.4624 74.9407 30.5026 74.9814 30.5408H73.1621C73.2008 30.5034 73.238 30.4642 73.2714 30.4216C73.3835 30.279 73.4611 30.112 73.498 29.9343L73.499 29.9304C73.5699 29.5767 73.6012 29.2159 73.5927 28.8552V25.3875C73.5927 24.9427 73.5578 24.547 73.4775 24.2136C73.3984 23.8857 73.2658 23.578 73.0419 23.3503H73.0429C72.8561 23.1583 72.6307 23.0082 72.3818 22.9089C72.1397 22.8124 71.8804 22.7666 71.6201 22.7742H71.5976C71.4216 22.7747 71.2467 22.793 71.0751 22.8279C71.1035 22.8085 71.1316 22.7885 71.1601 22.7693C71.577 22.4996 72.0662 22.3627 72.5625 22.3767H72.583L72.6025 22.3757ZM68.8701 22.4412V22.9626H68.5625L68.6455 23.5349L68.7978 24.5779L68.9277 25.4734V29.3552C68.9385 29.6031 68.9808 29.8488 69.0537 30.0867L69.0566 30.0974L69.0605 30.1072C69.1182 30.2707 69.2122 30.4192 69.3359 30.5408H67.6308C67.6499 30.5212 67.6699 30.5023 67.6875 30.4812C67.798 30.3485 67.8748 30.1911 67.9111 30.0222V30.0193C67.9607 29.7822 67.9891 29.5414 67.996 29.2996V23.9597C68.0299 23.7944 68.0305 23.6239 67.9921 23.4587C67.9467 23.2635 67.8526 23.0827 67.7177 22.9343C67.6441 22.8533 67.559 22.7845 67.4668 22.7273L68.7959 22.4412H68.8701Z" fill="#C7996E" stroke="#C7996E"/>
<path d="M27.1829 4.773C24.5907 2.18106 21.1799 0.568115 17.5318 0.208994C13.8837 -0.150127 10.224 0.766798 7.17612 2.80354C4.12828 4.84027 1.88094 7.87079 0.817022 11.3787C-0.246892 14.8867 -0.0615535 18.655 1.34146 22.0416C2.74448 25.4283 5.27835 28.2236 8.51135 29.9515C11.7444 31.6793 15.4764 32.2326 19.0717 31.5173C22.667 30.8019 25.9029 28.862 28.2283 26.0282C30.5536 23.1944 31.8244 19.642 31.8242 15.9763C31.8296 13.8947 31.4222 11.8329 30.6255 9.90984C29.8288 7.98681 28.6587 6.24085 27.1829 4.773ZM30.8115 13.4109C29.9624 13.5499 29.0943 13.5213 28.2563 13.3265C27.7533 13.2219 27.2436 13.0733 26.7002 12.9147L26.4335 12.8371C27.1964 11.8244 28.4588 11.2539 29.7381 10.7847L30.0757 10.6632C30.4073 11.5538 30.6537 12.4738 30.8115 13.4109ZM29.7651 9.92739L29.4613 10.0388C27.9761 10.589 26.4841 11.2809 25.62 12.6143C25.2065 12.5041 24.7858 12.4229 24.361 12.3712C23.8803 12.3156 23.3954 12.3054 22.9129 12.3408L20.4285 10.5451C20.6344 10.4438 20.8504 10.3426 21.0766 10.2447L21.1475 10.2109C21.6844 9.98756 22.2332 9.79375 22.7913 9.63034C23.5475 9.40756 24.3306 9.21853 25.0901 9.03625C25.9643 8.82697 26.8689 8.61091 27.7499 8.33412C28.0942 8.22611 28.425 8.11359 28.7423 7.99657C29.1301 8.61428 29.4719 9.25964 29.7651 9.92739ZM22.6361 13.1206V21.053H9.47163V13.1206L16.0539 8.37129L22.6361 13.1206ZM26.6192 5.33334C27.2304 5.94388 27.7883 6.60564 28.2867 7.31138C28.0402 7.40589 27.7803 7.49363 27.5103 7.57802C26.6563 7.84806 25.7652 8.06071 24.9044 8.25311L23.6217 8.56705C24.4327 7.93368 25.1096 7.14542 25.6133 6.24809C25.8316 5.80462 26.0101 5.34262 26.1466 4.86752C26.3052 5.02955 26.4673 5.17807 26.6192 5.33334ZM25.4749 4.30042C25.3466 4.85645 25.154 5.39566 24.901 5.90716C24.2259 7.24048 22.3627 8.70545 20.8133 9.49194C20.4352 9.64914 20.0667 9.82833 19.7095 10.0286L17.3095 8.297C17.7787 7.51063 18.1861 6.68908 18.5281 5.83967V5.9004C19.8277 5.86665 21.1576 5.22531 22.2681 4.09452C22.6497 3.70257 22.9975 3.27914 23.3078 2.82871C24.0724 3.25394 24.7977 3.74645 25.4749 4.30042ZM22.6023 2.45404C22.3309 2.83744 22.0307 3.19964 21.7044 3.53756C20.9453 4.36674 19.926 4.91209 18.815 5.08352C19.2354 3.88061 19.524 2.63564 19.6758 1.37047C20.6864 1.62873 21.6672 1.99191 22.6023 2.45404ZM15.9762 0.924927C16.9552 0.925235 17.9319 1.02018 18.8926 1.20846C18.6256 3.54791 17.8651 5.80405 16.6614 7.8278L16.0539 7.38901L14.9062 8.21599C14.634 7.51997 14.4745 6.78504 14.4336 6.03881C14.3999 4.88102 14.7509 3.76373 15.1087 2.58569C15.2809 2.04223 15.4463 1.49202 15.5914 0.931684L15.9762 0.924927ZM14.7745 0.975568C14.6564 1.42451 14.5113 1.88018 14.3661 2.346C13.988 3.53755 13.5999 4.7696 13.6404 6.05904C13.6387 6.08489 13.6387 6.11086 13.6404 6.13671C12.2144 5.08526 11.2388 3.5333 10.9096 1.79241C12.1564 1.35154 13.4559 1.07692 14.7745 0.975568ZM10.1569 2.08946C10.3752 3.14072 10.8092 4.13527 11.4314 5.01026C12.0537 5.88525 12.8507 6.62168 13.772 7.17297C13.8845 7.69437 14.0391 8.20576 14.2345 8.70208L12.6041 9.88013C11.9369 9.47947 11.2381 9.134 10.5147 8.84721C9.76727 8.32441 9.23667 7.54653 9.0227 6.65989C8.93193 6.21389 8.86656 5.7631 8.82692 5.30969C8.78116 4.81766 8.70791 4.32859 8.60751 3.84474C8.54412 3.55422 8.45604 3.26964 8.34422 2.99411C8.92616 2.64986 9.53191 2.34753 10.1569 2.08946ZM5.33328 5.33334C6.04327 4.62433 6.82111 3.98668 7.65562 3.42956C7.72699 3.62356 7.78562 3.82201 7.83114 4.02365C7.92506 4.47972 7.9938 4.94059 8.03705 5.40422C8.08156 5.88221 8.15028 6.35763 8.24295 6.82867C8.35901 7.32312 8.56003 7.79367 8.83704 8.21937H8.82017C7.36533 7.69617 5.86323 7.15607 4.61767 6.26494C4.58826 6.24777 4.56007 6.22863 4.53329 6.20759C4.78982 5.90379 5.05649 5.61013 5.33328 5.33334ZM4.03371 6.81853C4.07221 6.85046 4.11281 6.87979 4.15523 6.9063C5.48855 7.86156 7.04803 8.42192 8.54337 8.962L8.63789 8.99575C9.17459 9.18815 9.68092 9.37378 10.1602 9.56619L10.1974 9.58646C10.7775 9.81576 11.3414 10.0842 11.8851 10.3898L9.2016 12.3274C7.8514 12.0843 6.5012 11.7299 5.36703 10.9772C4.74415 10.5315 4.16136 10.0322 3.62528 9.48518C3.35186 9.22189 3.07169 8.95186 2.78478 8.69532C3.15239 8.03866 3.56993 7.4112 4.03371 6.81853ZM2.42022 9.42106C2.64638 9.62697 2.86579 9.83963 3.09532 10.0557C3.66286 10.6371 4.28199 11.1658 4.9451 11.6354C5.85037 12.2103 6.84858 12.6238 7.89528 12.8573C7.3822 12.9822 6.88263 13.1375 6.37968 13.2894C5.41776 13.6283 4.41985 13.8549 3.40587 13.9645C2.62775 14.0155 1.84695 13.9205 1.10378 13.6843C1.32652 12.2053 1.77029 10.7682 2.42022 9.42106ZM0.928254 15.9763C0.928254 15.4733 0.951885 14.9636 0.999142 14.4742C1.79551 14.7108 2.62729 14.8057 3.4565 14.7543C4.53102 14.6411 5.58891 14.4044 6.60921 14.0489C7.28741 13.8284 7.97701 13.6447 8.67502 13.4986V16.2497C8.16532 16.4016 7.66237 16.5872 7.16617 16.7425L7.13917 16.7628L6.65985 16.9315C5.60825 17.3298 4.52992 17.6535 3.43287 17.9003C2.65454 18.0511 1.86274 18.1212 1.07002 18.1096C0.973105 17.4027 0.925733 16.6898 0.928254 15.9763ZM1.20842 18.8994H1.24893C2.03191 18.8998 2.81307 18.824 3.58139 18.6733C4.13042 18.5612 4.67344 18.4215 5.20839 18.2547C4.35327 19.0935 3.56337 19.9962 2.84554 20.9551C2.58225 21.2927 2.33584 21.6302 2.10968 21.8766C1.70792 20.9178 1.40591 19.9201 1.20842 18.8994ZM2.48774 22.6699C2.78816 22.3323 3.11558 21.9273 3.50039 21.448C4.45228 20.2227 5.74846 18.5552 7.49022 17.4784C7.88515 17.34 8.28684 17.2049 8.68852 17.0834V21.4412C7.15143 22.0888 5.70479 22.933 4.38476 23.9525C4.13154 24.1651 3.88931 24.3904 3.65903 24.6276C3.22369 24.0056 2.83663 23.3511 2.50124 22.6699H2.48774ZM5.33328 26.6192C4.90519 26.1934 4.50279 25.7426 4.12823 25.269C4.36422 25.0228 4.61443 24.7906 4.87758 24.5737C6.29192 23.4057 8.0303 22.6192 9.5594 21.9205L9.65391 21.88L9.6978 21.8598H9.72142C9.55265 23.1526 9.29949 24.5196 8.63114 25.6572C8.10109 26.4781 7.45146 27.2154 6.70373 27.8445C6.22303 27.4636 5.76541 27.0544 5.33328 26.6192ZM7.35858 28.3069C8.12243 27.6535 8.78356 26.8889 9.31974 26.0386C10.0826 24.7424 10.3493 23.2403 10.5282 21.8395H14.8859L14.7745 22.0387C14.3965 22.6935 13.9644 23.3382 13.5526 23.9661C12.9125 24.8856 12.3319 25.845 11.8142 26.8386C11.3104 27.8652 10.9395 28.9519 10.7104 30.0723C9.52183 29.6326 8.39428 29.0427 7.3552 28.3171L7.35858 28.3069ZM11.4699 30.3322C11.682 29.2423 12.0384 28.1854 12.5298 27.1897C12.6412 26.9601 12.7627 26.734 12.891 26.5146C12.989 27.7212 13.2619 28.9071 13.7011 30.0352C13.8159 30.3289 13.9408 30.6191 14.0792 30.9061C13.1934 30.7958 12.3191 30.6072 11.4666 30.3424L11.4699 30.3322ZM15.9796 31.0073C15.6589 31.0073 15.3382 31.0074 15.021 30.977C14.0808 29.2131 13.61 27.237 13.6539 25.2386C13.8395 24.9483 14.0286 24.6648 14.2142 24.3846C14.6361 23.75 15.0716 23.0918 15.4631 22.4167C15.5779 22.2176 15.6825 22.0218 15.8007 21.8193H16.2935C16.334 21.9644 16.3779 22.0994 16.4184 22.2209C16.6476 22.862 16.9101 23.4908 17.2049 24.1045C17.4142 24.5568 17.6302 25.026 17.8125 25.4918C18.4589 27.1756 18.7151 28.9841 18.5618 30.7812C17.7084 30.9359 16.8435 31.0183 15.9762 31.0276L15.9796 31.0073ZM19.3551 30.6293C19.4761 28.7909 19.1962 26.9481 18.5348 25.2285L18.4943 25.1239L18.7104 25.2724C20.2546 26.3852 21.3907 27.9743 21.9441 29.7956C21.1081 30.1595 20.2403 30.4454 19.3517 30.6496L19.3551 30.6293ZM22.6664 29.4479C22.0514 27.4995 20.8237 25.8018 19.1661 24.6074C19.0648 24.5365 18.9635 24.4656 18.8589 24.3981C18.4836 24.1655 18.1427 23.8815 17.8462 23.5543H17.8294C17.5835 23.0345 17.3638 22.5027 17.1711 21.961C17.1543 21.9171 17.1408 21.8665 17.1239 21.8159H20.388C21.9407 23.3146 23.3787 24.766 24.1685 26.6529C24.3861 27.1716 24.5457 27.7127 24.6445 28.2664C24.0164 28.7182 23.3539 29.12 22.6631 29.4681L22.6664 29.4479ZM26.6225 26.599C26.2144 27.0075 25.7827 27.3919 25.3297 27.75C25.2233 27.2744 25.0753 26.809 24.8875 26.3593C24.1449 24.5838 22.8622 23.1627 21.512 21.8294H23.031C24.1128 22.1479 25.138 22.6342 26.069 23.2707C26.778 23.7757 27.424 24.3638 27.993 25.0226C27.5726 25.586 27.1136 26.1195 26.6192 26.6192L26.6225 26.599ZM28.4723 24.361C27.8932 23.7112 27.2434 23.1281 26.5348 22.6226C25.5802 21.9742 24.5332 21.4735 23.4293 21.1374V16.9653C24.4699 17.3008 25.4021 17.9079 26.1297 18.7239C26.4875 19.0952 26.8386 19.4868 27.1795 19.8682C27.7952 20.5835 28.4547 21.2599 29.1542 21.8935C29.3162 22.0353 29.4917 22.1703 29.6436 22.2952C29.3075 23.0204 28.9148 23.7179 28.4689 24.3812L28.4723 24.361ZM29.971 21.5256C29.8664 21.4446 29.7685 21.3602 29.6774 21.2826C29.0037 20.6657 28.3668 20.0097 27.7702 19.318C27.4326 18.9298 27.0681 18.5315 26.7002 18.1501C26.1416 17.547 25.4897 17.0375 24.7694 16.6413C25.9966 16.7408 27.1994 17.0395 28.3305 17.5256C29.2077 17.9115 30.0081 18.4524 30.6934 19.1222C30.5198 19.949 30.277 20.7597 29.9676 21.5458L29.971 21.5256ZM28.6546 16.7999C27.001 16.1105 25.2241 15.766 23.4327 15.7872V13.1071C23.7135 13.1031 23.9943 13.1178 24.2732 13.151C25.0208 13.2626 25.758 13.4354 26.4774 13.6674C27.0141 13.8227 27.5677 13.9847 28.1044 14.0961C29.0303 14.3084 29.9886 14.3394 30.9263 14.1873C31.0838 15.5241 31.0634 16.876 30.8655 18.2074C30.1997 17.6377 29.4536 17.1691 28.6512 16.8167L28.6546 16.7999Z" fill="#C7996E" stroke="#C7996E" stroke-width="0.5" stroke-miterlimit="10"/>
</g>
<defs>
<clipPath id="clip0_0_12">
<rect width="144.667" height="31.9558" fill="white"/>
</clipPath>
</defs>
</svg>
